<?xml version="1.0" encoding="utf-8"?>
<!-- Generator: Adobe Illustrator 27.5.0, SVG Export Plug-In . SVG Version: 6.00 Build 0)  -->
<svg version="1.1" xmlns="http://www.w3.org/2000/svg" xmlns:xlink="http://www.w3.org/1999/xlink" x="0px" y="0px"
	 viewBox="0 0 500 500" style="enable-background:new 0 0 500 500;" xml:space="preserve">
<g id="Background_Simple">
	<g>
		<path style="fill:#92E3A9;" d="M477.682,276.662c0,0-0.076-140.934-75.554-208.244C335.502,9.001,243.769-3.069,182.171,65.637
			c-21.948,24.481-48.489,49.994-76.056,67.099c-30.909,19.179-67.04,27.941-88.077,91.446
			C-2.999,287.688,29.576,380.81,77.357,413.781c47.781,32.97,122.653,20.716,186.968,6.93S472.075,451.537,477.682,276.662z"/>
		<path style="opacity:0.7;fill:#FFFFFF;" d="M477.682,276.662c0,0-0.076-140.934-75.554-208.244
			C335.502,9.001,243.769-3.069,182.171,65.637c-21.948,24.481-48.489,49.994-76.056,67.099
			c-30.909,19.179-67.04,27.941-88.077,91.446C-2.999,287.688,29.576,380.81,77.357,413.781
			c47.781,32.97,122.653,20.716,186.968,6.93S472.075,451.537,477.682,276.662z"/>
	</g>
</g>
<g id="Shadow">
	<ellipse style="opacity:0.16;" cx="248.26" cy="459.095" rx="153.392" ry="18.71"/>
</g>
<g id="Radiance">
	<path style="opacity:0.07;" d="M402.132,68.415c-10.744-9.583-22.14-17.928-33.956-24.896L268.359,193.53l135.65-123.399
		C403.393,69.545,402.765,68.976,402.132,68.415z M312.802,21.813c-15.813-3.206-31.746-3.889-47.333-1.789l2.889,173.506
		L312.802,21.813z M208.182,42.461c-9.119,6.355-17.831,14.053-26.011,23.178c-2.714,3.034-5.499,6.067-8.347,9.119l94.535,118.772
		L208.182,42.461z M126.286,118.685c-6.63,5.101-13.37,9.833-20.166,14.051c-14.971,9.282-31.165,16.133-46.269,27.94
		l208.508,32.854L126.286,118.685z M11.886,256.813c-1.825,27.068,3.308,56.37,13.236,82.865L268.359,193.53L11.886,256.813z
		 M268.359,193.53L94.706,423.357c25.267,10.981,55.633,12.964,87.107,10.579L268.359,193.53z M268.359,193.53l8.265,225.282
		c17.841-1.911,39.642-1.318,62.224-2.29L268.359,193.53z M463.304,349.634L268.359,193.53l151.777,204.609
		C437.814,388.252,452.967,373.06,463.304,349.634z M471.548,214.999l-203.19-21.469l209.128,75.732
		C477.063,259.049,475.731,239.127,471.548,214.999z M438.637,115.319L268.359,193.53l188.155-37.682
		C451.725,142.12,445.849,128.38,438.637,115.319z"/>
</g>
<g id="Hand_4">
	<g>
		<path style="fill:#FFFFFF;stroke:#263238;stroke-width:0.75;stroke-miterlimit:10;" d="M412.985,89.879
			c0,0-10.901,3.31-14.775,3.35c-3.874,0.04-15.387-1.87-20.63-5.925s-9.895-8.922-13.145-12.646
			c-3.25-3.724-5.666-3.556-5.902,1.296c-0.236,4.852,2.591,10.44,5.544,13.205s7.697,5.031,7.9,5.861s0.74,2.398,0.74,2.398
			s-8.52,4.729-13.647,6.836c-5.127,2.107-8.889,4.213-7.67,6.463s4.431,4.83,6.259,6.84c1.828,2.009,12.109,9.289,15.357,10.283
			c3.248,0.994,5.868,1.656,7.454,1.692c1.587,0.036,2.048,0.681,4.685-0.815c2.637-1.496,5.754-3.14,6.842-3.529
			c1.088-0.388,2.638-0.131,6.805-3.307c4.167-3.176,7.448-6.499,7.448-6.499l16.194-4.366L412.985,89.879z"/>
		<polygon style="fill:#FFFFFF;stroke:#263238;stroke-width:0.75;stroke-miterlimit:10;" points="407.1,90.381 418.245,117.141 
			429.386,114.44 416.691,87.422 		"/>
		<polygon style="fill:#263238;stroke:#263238;stroke-width:0.75;stroke-miterlimit:10;" points="432.042,79.179 412.19,87.131 
			425.57,118.925 456.23,113.205 454.848,111.056 		"/>
		<path style="fill:none;stroke:#263238;stroke-width:0.75;stroke-miterlimit:10;" d="M373.033,98.949c0,0,3.825,7.801,5.025,9.479
			c1.2,1.678,8.046,3.61,9.522,2.945"/>
		<path style="fill:#FFFFFF;stroke:#263238;stroke-width:0.75;stroke-miterlimit:10;" d="M383.01,118.349
			c0,0,2.269-0.647,2.861,1.271c0.592,1.918-1.711,6.882-2.779,9.208c-1.068,2.325-1.806,2.658-4.702,2.974
			c-2.896,0.316-4.797-1.251-4.797-1.251s3.134-2.438,3.595-3.157C377.647,126.673,383.01,118.349,383.01,118.349z"/>
		<path style="fill:#FFFFFF;stroke:#263238;stroke-width:0.75;stroke-miterlimit:10;" d="M365.766,125.612
			c0,0,4.248,5.937,6.037,5.438c1.789-0.5,4.002-1.497,4.813-2.273c0.811-0.775,5.4-7.18,6.008-8.786
			c0.608-1.605,0.569-4.114-1.185-5.202c-1.753-1.087-1.753-1.087-1.753-1.087s-2.341,2.455-5.568,4.764
			c-3.227,2.308-9.386,5.154-9.496,5.818C364.511,124.949,365.766,125.612,365.766,125.612z"/>
		<path style="fill:#FFFFFF;stroke:#263238;stroke-width:0.75;stroke-miterlimit:10;" d="M358.105,118.995
			c0,0-0.497,0.941,0.334,2.103c0.831,1.162,1.775,5.755,4.413,5.623c2.638-0.131,8.963-3.291,10.125-4.122
			c1.162-0.831,6.248-8.177,6.708-8.897c0.461-0.72-1.201-3.043-2.106-3.762s-3.412,0.685-3.412,0.685
			S364.044,117.477,358.105,118.995z"/>
		<path style="fill:#FFFFFF;stroke:#263238;stroke-width:0.75;stroke-miterlimit:10;" d="M355.828,108.721
			c0,0,6.346,0.143,7.305-0.153c0.959-0.296,7.894-2.33,7.894-2.33s1.052-0.167,2.16,1.382c1.108,1.549,0.593,3.283-0.513,4.465
			c-1.106,1.182-5.198,5.28-7.338,5.835c-2.14,0.555-7.637,0.781-9.353,0.837c-1.716,0.057-2.583-0.883-2.954-2.765
			c-0.37-1.881-1.627-5.275-1.627-5.275"/>
	</g>
</g>
<g id="Hand_3">
	<g>
		<path style="fill:#FFFFFF;stroke:#263238;stroke-width:0.75;stroke-miterlimit:10;" d="M444.598,335.276
			c0,0-10.792-3.65-13.965-5.872c-3.174-2.222-11.426-10.474-13.331-16.822c-1.904-6.348-2.857-13.013-3.333-17.933
			c-0.476-4.92-2.539-6.189-5.554-2.38c-3.015,3.809-3.967,9.998-3.174,13.965c0.793,3.967,3.333,8.57,3.015,9.363
			c-0.317,0.794-0.794,2.381-0.794,2.381s-9.681-1.111-15.076-2.381c-5.396-1.27-9.681-1.746-9.998,0.794
			c-0.317,2.539,0.793,6.507,1.111,9.205c0.317,2.698,4.444,14.6,6.507,17.298c2.063,2.698,3.809,4.761,5.078,5.713
			c1.27,0.952,1.27,1.746,4.285,2.063c3.015,0.317,6.507,0.793,7.618,1.111c1.111,0.317,2.222,1.428,7.459,1.27
			s9.839-0.952,9.839-0.952l15.711,5.872L444.598,335.276z"/>
		<polygon style="fill:#FFFFFF;stroke:#263238;stroke-width:0.75;stroke-miterlimit:10;" points="439.52,332.261 433.013,360.509 
			443.646,364.794 449.042,335.435 		"/>
		<polygon style="fill:#263238;stroke:#263238;stroke-width:0.75;stroke-miterlimit:10;" points="466.323,337.663 445.55,332.578 
			437.933,366.223 466.196,379.41 466.323,376.857 		"/>
		<path style="fill:none;stroke:#263238;stroke-width:0.75;stroke-miterlimit:10;" d="M406.828,319.406c0,0-1.428,8.57-1.428,10.633
			c0,2.063,4.444,7.617,6.031,7.935"/>
		<path style="fill:#FFFFFF;stroke:#263238;stroke-width:0.75;stroke-miterlimit:10;" d="M403.654,340.99
			c0,0,2.222,0.793,1.587,2.698c-0.635,1.904-5.396,4.602-7.618,5.872c-2.222,1.27-3.015,1.111-5.554-0.317
			c-2.539-1.428-3.174-3.809-3.174-3.809s3.967-0.159,4.761-0.476C394.449,344.64,403.654,340.99,403.654,340.99z"/>
		<path style="fill:#FFFFFF;stroke:#263238;stroke-width:0.75;stroke-miterlimit:10;" d="M385.403,336.863c0,0,0,7.3,1.746,7.935
			c1.746,0.635,4.126,1.111,5.237,0.952c1.111-0.159,8.57-2.698,9.998-3.65c1.428-0.952,2.857-3.015,2.063-4.92
			c-0.794-1.904-0.794-1.904-0.794-1.904s-3.333,0.635-7.3,0.635c-3.967,0-10.633-1.27-11.109-0.793
			S385.403,336.863,385.403,336.863z"/>
		<path style="fill:#FFFFFF;stroke:#263238;stroke-width:0.75;stroke-miterlimit:10;" d="M383.023,327.024
			c0,0-0.952,0.476-0.952,1.904c0,1.428-1.904,5.713,0.317,7.141c2.222,1.428,9.204,2.539,10.633,2.539
			c1.428,0,9.839-3.015,10.633-3.333c0.794-0.317,0.794-3.174,0.476-4.285c-0.317-1.111-3.174-1.428-3.174-1.428
			S388.736,329.246,383.023,327.024z"/>
		<path style="fill:#FFFFFF;stroke:#263238;stroke-width:0.75;stroke-miterlimit:10;" d="M387.149,317.343
			c0,0,5.078,3.809,6.031,4.126c0.952,0.317,7.776,2.698,7.776,2.698s0.952,0.476,0.952,2.38c0,1.904-1.428,3.015-3.015,3.333
			c-1.587,0.317-7.3,1.27-9.363,0.476c-2.063-0.793-6.665-3.809-8.094-4.761c-1.428-0.952-1.587-2.222-0.793-3.967
			c0.793-1.746,1.746-5.237,1.746-5.237"/>
	</g>
</g>
<g id="Hand_2">
	<g>
		<path style="fill:#FFFFFF;stroke:#263238;stroke-width:0.75;stroke-miterlimit:10;" d="M63.837,331.689
			c0,0,10.792-3.65,13.965-5.872c3.174-2.222,11.426-10.474,13.331-16.822c1.904-6.348,2.857-13.013,3.333-17.933
			c0.476-4.92,2.539-6.189,5.555-2.38c3.015,3.809,3.967,9.998,3.174,13.965c-0.794,3.967-3.333,8.57-3.015,9.363
			c0.317,0.793,0.793,2.38,0.793,2.38s9.681-1.111,15.076-2.38c5.396-1.27,9.681-1.746,9.998,0.793
			c0.317,2.539-0.794,6.507-1.111,9.205c-0.317,2.698-4.443,14.6-6.507,17.298s-3.809,4.761-5.078,5.713
			c-1.27,0.952-1.27,1.746-4.285,2.063c-3.015,0.317-6.507,0.794-7.618,1.111c-1.111,0.317-2.222,1.428-7.459,1.27
			c-5.237-0.159-9.839-0.952-9.839-0.952l-15.711,5.872L63.837,331.689z"/>
		<polygon style="fill:#FFFFFF;stroke:#263238;stroke-width:0.75;stroke-miterlimit:10;" points="68.915,328.673 75.422,356.922 
			64.789,361.207 59.394,331.848 		"/>
		<polygon style="fill:#263238;stroke:#263238;stroke-width:0.75;stroke-miterlimit:10;" points="42.112,334.075 62.885,328.991 
			70.502,362.635 42.239,375.822 42.112,373.27 		"/>
		<path style="fill:none;stroke:#263238;stroke-width:0.75;stroke-miterlimit:10;" d="M101.607,315.819c0,0,1.428,8.57,1.428,10.633
			c0,2.063-4.443,7.618-6.031,7.935"/>
		<path style="fill:#FFFFFF;stroke:#263238;stroke-width:0.75;stroke-miterlimit:10;" d="M104.781,337.402
			c0,0-2.222,0.794-1.587,2.698c0.635,1.904,5.396,4.602,7.618,5.872c2.222,1.27,3.015,1.111,5.554-0.317
			c2.539-1.428,3.174-3.809,3.174-3.809s-3.967-0.159-4.761-0.476C113.986,341.052,104.781,337.402,104.781,337.402z"/>
		<path style="fill:#FFFFFF;stroke:#263238;stroke-width:0.75;stroke-miterlimit:10;" d="M123.032,333.276c0,0,0,7.3-1.746,7.935
			c-1.746,0.635-4.126,1.111-5.237,0.952c-1.111-0.159-8.57-2.698-9.998-3.65c-1.428-0.952-2.857-3.015-2.063-4.92
			c0.793-1.904,0.793-1.904,0.793-1.904s3.333,0.635,7.3,0.635c3.967,0,10.633-1.27,11.109-0.794
			C123.666,332.006,123.032,333.276,123.032,333.276z"/>
		<path style="fill:#FFFFFF;stroke:#263238;stroke-width:0.75;stroke-miterlimit:10;" d="M125.412,323.436
			c0,0,0.952,0.476,0.952,1.904c0,1.428,1.904,5.713-0.317,7.142c-2.222,1.428-9.204,2.539-10.633,2.539
			c-1.428,0-9.839-3.015-10.633-3.333c-0.793-0.317-0.793-3.174-0.476-4.285s3.174-1.428,3.174-1.428
			S119.699,325.658,125.412,323.436z"/>
		<path style="fill:#FFFFFF;stroke:#263238;stroke-width:0.75;stroke-miterlimit:10;" d="M121.286,313.756
			c0,0-5.078,3.809-6.031,4.126c-0.952,0.317-7.776,2.698-7.776,2.698s-0.952,0.476-0.952,2.38c0,1.904,1.428,3.015,3.015,3.333
			s7.3,1.27,9.363,0.476c2.063-0.794,6.665-3.809,8.094-4.761c1.428-0.952,1.587-2.222,0.793-3.967s-1.746-5.237-1.746-5.237"/>
	</g>
</g>
<g id="Hand_1">
	<g>
		<path style="fill:#FFFFFF;stroke:#263238;stroke-width:0.75;stroke-miterlimit:10;" d="M75.573,99.376
			c0,0,10.901,3.31,14.775,3.35s15.387-1.87,20.63-5.925c5.242-4.055,9.895-8.922,13.145-12.646c3.25-3.724,5.666-3.556,5.903,1.296
			c0.236,4.852-2.591,10.44-5.545,13.205c-2.954,2.765-7.697,5.031-7.9,5.861c-0.203,0.83-0.74,2.398-0.74,2.398
			s8.52,4.729,13.647,6.836c5.127,2.107,8.889,4.213,7.67,6.463c-1.219,2.25-4.431,4.83-6.259,6.84
			c-1.828,2.009-12.109,9.289-15.357,10.283c-3.248,0.994-5.868,1.656-7.454,1.692c-1.587,0.036-2.048,0.681-4.685-0.815
			c-2.637-1.496-5.753-3.141-6.842-3.529c-1.088-0.388-2.638-0.131-6.805-3.307c-4.167-3.176-7.448-6.499-7.448-6.499l-16.194-4.366
			L75.573,99.376z"/>
		<polygon style="fill:#FFFFFF;stroke:#263238;stroke-width:0.75;stroke-miterlimit:10;" points="81.458,99.879 70.313,126.639 
			59.173,123.937 71.867,96.92 		"/>
		<polygon style="fill:#263238;stroke:#263238;stroke-width:0.75;stroke-miterlimit:10;" points="56.516,88.677 76.368,96.628 
			62.988,128.423 32.329,122.703 33.711,120.553 		"/>
		<path style="fill:none;stroke:#263238;stroke-width:0.75;stroke-miterlimit:10;" d="M115.525,108.446c0,0-3.825,7.801-5.025,9.479
			c-1.2,1.678-8.046,3.61-9.521,2.945"/>
		<path style="fill:#FFFFFF;stroke:#263238;stroke-width:0.75;stroke-miterlimit:10;" d="M105.549,127.846
			c0,0-2.269-0.647-2.861,1.271c-0.592,1.918,1.711,6.883,2.779,9.208c1.068,2.325,1.806,2.658,4.702,2.974
			c2.896,0.316,4.798-1.251,4.798-1.251s-3.134-2.438-3.595-3.157C110.911,136.171,105.549,127.846,105.549,127.846z"/>
		<path style="fill:#FFFFFF;stroke:#263238;stroke-width:0.75;stroke-miterlimit:10;" d="M122.792,135.109
			c0,0-4.248,5.937-6.037,5.438c-1.789-0.499-4.002-1.497-4.813-2.273c-0.811-0.776-5.4-7.181-6.007-8.786
			c-0.608-1.605-0.569-4.114,1.185-5.201c1.753-1.087,1.753-1.087,1.753-1.087s2.341,2.455,5.568,4.764s9.386,5.154,9.496,5.818
			C124.047,134.446,122.792,135.109,122.792,135.109z"/>
		<path style="fill:#FFFFFF;stroke:#263238;stroke-width:0.75;stroke-miterlimit:10;" d="M130.453,128.492
			c0,0,0.497,0.941-0.334,2.103c-0.831,1.162-1.775,5.755-4.413,5.623c-2.638-0.131-8.963-3.29-10.125-4.122
			c-1.162-0.831-6.248-8.177-6.709-8.897c-0.461-0.72,1.201-3.043,2.106-3.762c0.905-0.719,3.412,0.685,3.412,0.685
			S124.514,126.975,130.453,128.492z"/>
		<path style="fill:#FFFFFF;stroke:#263238;stroke-width:0.75;stroke-miterlimit:10;" d="M132.73,118.218
			c0,0-6.346,0.143-7.305-0.153c-0.959-0.296-7.894-2.33-7.894-2.33s-1.052-0.167-2.16,1.382c-1.108,1.549-0.593,3.283,0.513,4.465
			c1.106,1.181,5.198,5.28,7.338,5.835c2.14,0.555,7.637,0.781,9.353,0.837c1.716,0.057,2.583-0.884,2.954-2.765
			c0.37-1.882,1.627-5.275,1.627-5.275"/>
	</g>
</g>
<g id="Character">
	<g>
		<path style="fill:#263238;stroke:#263238;stroke-width:0.75;stroke-miterlimit:10;" d="M221.988,244.346
			c0,0-7.004,30.661-7.276,45.08c-0.272,14.419,0.52,66.391,0.792,77.545c0.272,11.154,5.169,47.336,5.169,50.601
			c0,3.265,0.816,9.522,0.816,9.522l-2.176,11.698c0,0-1.904,1.632-6.801,4.353c-4.897,2.72-10.61,6.257-12.242,8.161l0,0
			c-0.846,0.987-0.469,2.521,0.745,2.987c1.538,0.589,3.691,1.227,6.056,1.366c4.625,0.272,12.242,0.272,16.323-0.816
			c4.081-1.088,7.345-4.625,9.25-5.985c1.904-1.36,1.904-1.36,1.904-1.36l0.272,2.993c0,0,0.272,0,2.72-0.544
			c2.449-0.544,5.713-2.449,5.713-2.449s0.272-4.625,0.272-7.345c0-2.721-1.36-7.617-1.632-8.706
			c-0.272-1.088,0-10.882-0.816-14.147c-0.816-3.264-1.36-2.448-1.904-8.434c-0.544-5.985,4.353-62.571,4.081-64.203
			c-0.272-1.632,6.929-50.686,6.929-50.686s13.747,64.016,18.099,76.259c4.353,12.242,6.529,35.91,6.529,37.543
			c0,1.632,2.448,20.948,3.537,23.668c1.088,2.72,4.081,11.154,4.081,11.154s4.353,6.529,6.257,9.794
			c1.904,3.265,8.434,5.985,13.33,6.801c4.897,0.816,8.706,1.088,8.978-5.441c0.272-6.529-2.176-10.882-6.257-13.874
			c-4.081-2.993-4.897-5.713-4.897-5.713s0.544-7.345,0-11.97c-0.544-4.625-3.537-8.161-3.809-17.683
			c-0.272-9.522-2.176-59.579-3.809-67.468c-1.632-7.889-3.784-60.678-3.512-68.023c0.272-7.345-0.684-27.81-0.684-27.81
			l-66.24-0.755L221.988,244.346z"/>
		<g>
			<path style="fill:#92E3A9;stroke:#263238;stroke-width:0.75;stroke-miterlimit:10;" d="M247.987,134.738
				c0,0-10.105,5.964-17.269,9.545c-7.163,3.582-15.894,5.596-16.789,7.611c-0.895,2.015-16.341,34.921-19.252,39.398
				c-2.91,4.477-9.849,13.207-8.506,18.132c1.343,4.925,6.939,11.64,10.521,11.193c3.582-0.448,10.745-2.462,13.655-7.611
				c2.91-5.149,9.85-21.714,9.85-21.714s1.119,15.446,0.895,23.057c-0.224,7.611-0.224,13.879-0.672,17.684
				c-0.448,3.805-2.462,8.507-1.567,9.85c0.895,1.343,2.015,2.686,3.134,2.462c1.119-0.224,17.908-0.448,23.057-0.224
				c5.149,0.224,28.429,0,33.354,0.224c4.925,0.224,9.178-2.239,9.626-3.134s1.343-2.238,0.895-7.163
				c-0.448-4.925,0.448-19.923,1.791-25.743c1.343-5.82,9.402-28.206,9.402-28.206s21.266,16.789,25.743,18.132
				c4.477,1.343,16.565-0.672,20.595-5.596c4.029-4.925,5.372-8.73,2.91-12.088c-2.462-3.358-11.417-6.492-20.818-16.565
				c-9.402-10.073-12.984-14.774-19.475-17.908c-6.492-3.134-19.699-7.387-22.833-8.73s-4.029-2.015-6.044-2.91
				c-2.015-0.895-6.716-2.686-15.446-2.91C256.013,131.299,247.987,134.738,247.987,134.738z"/>
			<g>
				<path style="fill:none;stroke:#263238;stroke-width:0.75;stroke-miterlimit:10;" d="M215.69,175.434
					c0.309,1.08,4.507,15.858,4.507,15.858l-6.204-12.309"/>
				<path style="fill:none;stroke:#263238;stroke-width:0.75;stroke-miterlimit:10;" d="M300.113,180.1
					c-0.938-0.036-9.734-4.974-9.734-4.974"/>
				<path style="fill:none;stroke:#263238;stroke-width:0.75;stroke-miterlimit:10;" d="M285.904,174.508
					c0,0,3.549,4.629,6.636,5.555"/>
			</g>
		</g>
		<path style="fill:#263238;stroke:#263238;stroke-width:0.75;stroke-miterlimit:10;" d="M246.738,148.472l2.809,10.613
			c0,0-8.896,44.481-10.301,51.972c-1.405,7.492-1.717,13.734-1.717,13.734l7.804,15.451l9.833-16.7c0,0-0.936-21.07-1.249-37.926
			c-0.312-16.856,0.312-24.972,0.156-25.44c-0.156-0.468,9.833-7.804,9.833-7.804s5.775-6.399,6.087-7.492
			c0.312-1.093-4.058,0.312-4.994,1.249c-0.936,0.937-3.746,2.653-7.804,1.873c-4.058-0.78-9.364-5.306-10.145-3.121
			C246.27,147.067,246.738,148.472,246.738,148.472z"/>
		<path style="fill:#92E3A9;stroke:#263238;stroke-width:0.75;stroke-miterlimit:10;" d="M253.449,130.367
			c-0.468,0.312-4.214,1.249-5.463,4.37c-1.249,3.121-7.648,17.48-9.52,19.821c-1.873,2.341,1.093,1.405,3.59-0.156
			c2.497-1.561,4.682-7.648,6.087-4.994c1.405,2.653,5.463,3.746,5.463,3.746s8.428-1.561,10.301-2.809s3.59-2.965,3.59-2.965
			s7.179,10.769,9.208,11.706c2.029,0.936,2.341-0.624,2.497-2.341c0.156-1.717,1.561-11.862,3.59-18.573
			c2.029-6.711-1.873-8.896-4.37-11.705c-2.497-2.809-5.307-0.936-8.116-0.624C267.496,126.154,253.449,130.367,253.449,130.367z"/>
		<g>
			<path style="fill:#FFFFFF;stroke:#263238;stroke-width:0.75;stroke-miterlimit:10;" d="M249.17,82.312
				c0,0-4.876,7.404-3.973,9.21c0.903,1.806,0.903,4.154,0,5.418c-0.903,1.264-1.986,2.89-1.625,5.96
				c0.361,3.07-1.445,18.601,1.264,20.407c2.709,1.806,5.599,2.709,5.599,2.709s3.07,26.006,4.154,25.283
				c1.084-0.722,16.615-16.615,18.421-20.046c1.806-3.431,3.973-8.308,3.973-8.308s6.14-11.739,9.752-16.615
				c3.612-4.876,7.766-13.906,6.501-18.602c-1.264-4.696-7.766-8.127-10.836-10.655c-3.07-2.528-1.084-8.307-5.418-11.197
				c-4.334-2.889-9.572-3.612-13.003-2.348c-3.431,1.264-3.612,3.973-7.766,1.264c-4.154-2.709-8.127-5.418-14.448-2.348
				c-6.321,3.07-7.585,13.906-3.793,16.796C241.765,82.132,249.17,82.312,249.17,82.312z"/>
			<path style="fill:#263238;stroke:#263238;stroke-width:0.75;stroke-miterlimit:10;" d="M282.399,77.075
				c-3.07-2.528-1.084-8.307-5.418-11.197c-4.334-2.89-9.572-3.612-13.003-2.348c-3.431,1.264-3.612,3.973-7.766,1.264
				c-4.154-2.709-8.127-5.418-14.448-2.348c-6.321,3.07-7.585,13.906-3.793,16.796c3.793,2.889,11.197,3.07,11.197,3.07
				s5.418-2.528,9.03-4.515c3.612-1.987,11.739,1.264,13.184,2.528c1.445,1.264-0.722,0.361-1.083,2.709
				c-0.361,2.348,4.154,6.14,6.14,7.946c1.986,1.806-0.361,3.07-0.903,5.418c-0.542,2.348,1.625,3.251,2.889,2.348
				c1.264-0.903,5.237-5.96,6.682-3.07c1.445,2.89,3.612,7.224-0.361,10.294c-3.973,3.07-6.863,2.348-6.863,2.348
				s-1.295,7.822,2.458,8.437c2.015-3.605,4.536-7.918,6.391-10.423c3.612-4.876,7.766-13.906,6.501-18.602
				C291.971,83.035,285.469,79.603,282.399,77.075z"/>
			<path style="fill:none;stroke:#263238;stroke-width:0.5;stroke-miterlimit:10;" d="M258.922,91.884c0,0,1.806-0.722,3.612-0.542"
				/>
			<path style="fill:none;stroke:#263238;stroke-width:0.5;stroke-miterlimit:10;" d="M249.677,93.657c0,0-1.576,0.328-2.562,0.92"
				/>
			<path style="fill:none;stroke:#263238;stroke-width:0.75;stroke-miterlimit:10;" d="M249.743,88.731c0,0,1.117,2.036,0.525,4.007
				c-0.591,1.97-6.174,6.371-6.109,7.225c0.066,0.854,3.284,2.627,3.218,3.35c-0.066,0.722-0.263,1.905-0.263,1.905"/>
			
				<ellipse style="fill:#263238;stroke:#263238;stroke-width:0.5;stroke-miterlimit:10;" cx="261.96" cy="92.935" rx="1.182" ry="1.445"/>
			<path style="fill:none;stroke:#263238;stroke-width:0.75;stroke-miterlimit:10;" d="M259.661,95.299
				c0.197-0.066,3.087-1.248,4.992-1.117"/>
			<path style="fill:#263238;stroke:#263238;stroke-width:0.5;stroke-miterlimit:10;" d="M255.488,86.6c0,0,3.874-3.594,6.875-2.867
				c3.001,0.727,4.139,3.611,3.661,3.62s-1.992-2.227-3.647-2.393c-1.655-0.167-2.813,0.614-4.225,1.327
				C256.741,87,255.857,87.513,255.488,86.6z"/>
			<path style="fill:#263238;stroke:#263238;stroke-width:0.5;stroke-miterlimit:10;" d="M250.006,89.453
				c0-0.294-0.46-1.642-2.233-1.379c-1.773,0.263-3.116,3.482-2.576,3.449c0.54-0.033,1.131-2.069,2.51-2.266
				C249.086,89.059,250.006,91.227,250.006,89.453z"/>
			<path style="fill:none;stroke:#263238;stroke-width:0.75;stroke-miterlimit:10;" d="M246.984,109.29c0,0,2.824-0.328,6.503-0.788
				c3.678-0.46,8.867-1.182,9.721-3.81c0.854-2.627,0.657-4.007,0.657-4.007"/>
			<path style="fill:none;stroke:#263238;stroke-width:0.75;stroke-miterlimit:10;" d="M261.894,100.488
				c0.263-0.066,2.365-0.066,3.219,0.197"/>
			<path style="fill:#263238;stroke:#263238;stroke-width:0.5;stroke-miterlimit:10;" d="M277.055,113.468
				c0,0-0.697,3.882-3.981,5.972c-3.285,2.09-27.373,4.479-26.576,4.778c0.796,0.299,3.937,1.799,3.937,1.799l0.94,8.553
				c0,0,4.579-4.38,12.542-8.461C271.879,122.028,276.856,120.634,277.055,113.468z"/>
		</g>
		<g>
			<path style="fill:#FFFFFF;stroke:#263238;stroke-width:0.75;stroke-miterlimit:10;" d="M290.487,230.243
				c0,0-4.477-0.224-5.596-0.448c-1.119-0.224-4.701-3.582-6.268-3.358c-1.567,0.224-4.477,3.358-5.596,6.044
				c-1.119,2.686-1.567,4.029-1.567,4.029s-4.029,3.582-2.015,6.044c2.015,2.462,4.253,1.567,4.253,1.567s1.343,2.239,3.134,2.462
				c1.791,0.224,4.029,0.224,4.029,0.224s2.238,0.672,3.582,0.448c1.343-0.224,2.686-1.119,2.686-1.119s1.567,0.224,2.686-0.671
				c0.824-0.659,4.798-4.711,6.841-6.806c0.734-0.752,1.218-1.253,1.218-1.253L290.487,230.243z"/>
			<g>
				<path style="fill:#92E3A9;stroke:#263238;stroke-width:0.75;stroke-miterlimit:10;" d="M327.871,184.129
					c0,0-8.283,9.178-10.969,13.655c-2.686,4.477-10.969,16.118-14.103,19.699c-3.134,3.582-14.103,12.312-14.103,12.312
					s3.358,7.163,5.82,8.283c2.462,1.119,4.477,1.567,4.477,1.567l8.954-6.716c0,0,17.013-12.984,25.967-20.371
					c8.954-7.387,21.49-17.237,22.385-21.49c0.895-4.253,0.224-6.492-4.253-9.85c-4.477-3.358-9.178-4.701-9.178-4.701"/>
				<path style="fill:none;stroke:#263238;stroke-width:0.75;stroke-miterlimit:10;" d="M295.636,224.199c0,0,2.015,9.85,8.954,9.85
					"/>
			</g>
		</g>
		<g>
			<path style="fill:#FFFFFF;stroke:#263238;stroke-width:0.75;stroke-miterlimit:10;" d="M198.098,151.669
				c0,0,0.926,7.87,1.389,11.419c0.463,3.549,1.543,5.092,1.543,5.092s-7.253,16.203-7.561,16.666
				c-0.309,0.463-7.87,14.66-9.105,16.357c-1.234,1.697-4.167,7.098-2.315,10.493c1.852,3.395,4.784,10.339,8.642,10.493
				c3.858,0.154,9.259-2.161,12.962-4.321s4.938-3.549,5.247-9.722c0.309-6.173,0.154-17.283,1.235-23.147
				c1.08-5.864,1.852-12.037,2.623-14.351c0.772-2.315,5.247-1.543,6.79-2.469c1.543-0.926,2.932-2.932,5.71-4.167
				c2.778-1.234,6.635-0.926,7.561-0.617c0.926,0.309,2.623-1.08,2.16-2.778c-0.463-1.698-3.549-2.623-6.635-2.315
				c-3.086,0.309-5.864,1.235-6.636,0.771c-0.772-0.463-1.543-8.642-1.543-8.642s-10.956,0.926-14.814,1.08
				C201.493,151.669,198.098,151.669,198.098,151.669z"/>
			<g>
				<path style="fill:#FFFFFF;stroke:#263238;stroke-width:0.75;stroke-miterlimit:10;" d="M215.073,145.651
					c0,0,0.154,10.185,0.154,11.111s0.926,1.698,1.697,1.543c0.772-0.154,2.778,0.617,3.241-1.697
					c0.463-2.315,1.389-8.796,0.926-10.339C220.628,144.725,216.462,144.108,215.073,145.651z"/>
				<path style="fill:#FFFFFF;stroke:#263238;stroke-width:0.75;stroke-miterlimit:10;" d="M215.073,145.651
					c0,0-4.938-1.234-6.327-0.463c-1.389,0.771,0.772,11.728,0.926,12.654c0.154,0.926,2.315,1.389,3.241,1.08
					c0.926-0.309,2.315-0.926,2.315-2.16S215.073,145.651,215.073,145.651z"/>
				<path style="fill:#FFFFFF;stroke:#263238;stroke-width:0.75;stroke-miterlimit:10;" d="M207.666,145.497
					c0,0-3.241-0.617-4.167,0.463s-1.234,2.623-0.926,5.401c0.309,2.778,1.852,6.944,2.469,7.87c0.617,0.926,2.623,1.08,3.858,0.617
					c1.235-0.463,0.772-2.006,0.772-2.006s-0.617-0.617-0.772-5.401s-0.154-7.253-0.154-7.253L207.666,145.497z"/>
				<path style="fill:#FFFFFF;stroke:#263238;stroke-width:0.75;stroke-miterlimit:10;" d="M202.265,147.348
					c-0.617,0.154-4.475,0.309-4.63,1.852c-0.154,1.543,1.234,8.796,1.852,9.568c0.617,0.772,2.315,0.463,2.932,0.154
					c0.617-0.309,1.697-0.772,1.543-1.697C203.808,156.299,202.265,147.348,202.265,147.348z"/>
			</g>
			<path style="fill:#92E3A9;stroke:#263238;stroke-width:0.75;stroke-miterlimit:10;" d="M203.499,177.903
				c-2.735-0.283-4.256-2.408-5.028-4.02c-2.121,4.716-4.817,10.686-5.003,10.964c-0.309,0.463-7.87,14.66-9.105,16.357
				c-1.234,1.697-4.167,7.098-2.315,10.493c1.852,3.395,4.784,10.339,8.642,10.493c3.858,0.154,9.259-2.16,12.962-4.321
				s4.938-3.549,5.247-9.722c0.309-6.173,0.154-17.283,1.234-23.147c0.53-2.877,0.985-5.825,1.403-8.358
				C209.151,177.388,205.956,178.157,203.499,177.903z"/>
			<path style="fill:#FFFFFF;stroke:#263238;stroke-width:0.75;stroke-miterlimit:10;" d="M210.598,160.928
				c0,0-2.623,2.315-2.932,4.321c-0.309,2.006,0.772,3.704,0.772,3.704"/>
		</g>
	</g>
</g>
</svg>
